<svg width="391" height="58" viewBox="0 0 391 58" fill="none" xmlns="http://www.w3.org/2000/svg">
<circle cx="29" cy="29" r="29" fill="#9208D3"/>
<path d="M86.213 20.436H90.208V22H84.275V10.185H86.213V20.436ZM95.8917 22.153C95.0077 22.153 94.2087 21.9547 93.4947 21.558C92.7807 21.15 92.2197 20.5833 91.8117 19.858C91.4037 19.1213 91.1997 18.2713 91.1997 17.308C91.1997 16.356 91.4094 15.5117 91.8287 14.775C92.248 14.0383 92.8204 13.4717 93.5457 13.075C94.271 12.6783 95.0814 12.48 95.9767 12.48C96.872 12.48 97.6824 12.6783 98.4077 13.075C99.133 13.4717 99.7054 14.0383 100.125 14.775C100.544 15.5117 100.754 16.356 100.754 17.308C100.754 18.26 100.538 19.1043 100.108 19.841C99.677 20.5777 99.0877 21.15 98.3397 21.558C97.603 21.9547 96.787 22.153 95.8917 22.153ZM95.8917 20.47C96.3904 20.47 96.855 20.351 97.2857 20.113C97.7277 19.875 98.0847 19.518 98.3567 19.042C98.6287 18.566 98.7647 17.988 98.7647 17.308C98.7647 16.628 98.6344 16.0557 98.3737 15.591C98.113 15.115 97.7674 14.758 97.3367 14.52C96.906 14.282 96.4414 14.163 95.9427 14.163C95.444 14.163 94.9794 14.282 94.5487 14.52C94.1294 14.758 93.795 15.115 93.5457 15.591C93.2964 16.0557 93.1717 16.628 93.1717 17.308C93.1717 18.3167 93.4267 19.0987 93.9367 19.654C94.458 20.198 95.1097 20.47 95.8917 20.47ZM104.608 13.993C104.891 13.517 105.265 13.1487 105.73 12.888C106.206 12.616 106.767 12.48 107.413 12.48V14.486H106.92C106.16 14.486 105.582 14.6787 105.186 15.064C104.8 15.4493 104.608 16.118 104.608 17.07V22H102.67V12.633H104.608V13.993ZM117.779 17.087C117.779 17.4383 117.756 17.7557 117.711 18.039H110.554C110.611 18.787 110.888 19.3877 111.387 19.841C111.886 20.2943 112.498 20.521 113.223 20.521C114.266 20.521 115.002 20.0847 115.433 19.212H117.524C117.241 20.0733 116.725 20.7817 115.977 21.337C115.24 21.881 114.322 22.153 113.223 22.153C112.328 22.153 111.523 21.9547 110.809 21.558C110.106 21.15 109.551 20.5833 109.143 19.858C108.746 19.1213 108.548 18.2713 108.548 17.308C108.548 16.3447 108.741 15.5003 109.126 14.775C109.523 14.0383 110.072 13.4717 110.775 13.075C111.489 12.6783 112.305 12.48 113.223 12.48C114.107 12.48 114.895 12.6727 115.586 13.058C116.277 13.4433 116.816 13.9873 117.201 14.69C117.586 15.3813 117.779 16.1803 117.779 17.087ZM115.756 16.475C115.745 15.761 115.49 15.1887 114.991 14.758C114.492 14.3273 113.875 14.112 113.138 14.112C112.469 14.112 111.897 14.3273 111.421 14.758C110.945 15.1773 110.662 15.7497 110.571 16.475H115.756ZM131.025 12.48C131.762 12.48 132.419 12.633 132.997 12.939C133.586 13.245 134.045 13.6983 134.374 14.299C134.714 14.8997 134.884 15.625 134.884 16.475V22H132.963V16.764C132.963 15.9253 132.753 15.285 132.334 14.843C131.915 14.3897 131.342 14.163 130.617 14.163C129.892 14.163 129.314 14.3897 128.883 14.843C128.464 15.285 128.254 15.9253 128.254 16.764V22H126.333V16.764C126.333 15.9253 126.123 15.285 125.704 14.843C125.285 14.3897 124.712 14.163 123.987 14.163C123.262 14.163 122.684 14.3897 122.253 14.843C121.834 15.285 121.624 15.9253 121.624 16.764V22H119.686V12.633H121.624V13.704C121.941 13.3187 122.344 13.0183 122.831 12.803C123.318 12.5877 123.84 12.48 124.395 12.48C125.143 12.48 125.812 12.6387 126.401 12.956C126.99 13.2733 127.444 13.7323 127.761 14.333C128.044 13.7663 128.486 13.3187 129.087 12.99C129.688 12.65 130.334 12.48 131.025 12.48ZM143.704 10.185V22H141.766V10.185H143.704ZM148.187 14.01C148.515 13.5793 148.963 13.2167 149.53 12.922C150.096 12.6273 150.737 12.48 151.451 12.48C152.267 12.48 153.009 12.684 153.678 13.092C154.358 13.4887 154.89 14.0497 155.276 14.775C155.661 15.5003 155.854 16.3333 155.854 17.274C155.854 18.2147 155.661 19.059 155.276 19.807C154.89 20.5437 154.358 21.1217 153.678 21.541C153.009 21.949 152.267 22.153 151.451 22.153C150.737 22.153 150.102 22.0113 149.547 21.728C148.991 21.4333 148.538 21.0707 148.187 20.64V26.454H146.249V12.633H148.187V14.01ZM153.882 17.274C153.882 16.628 153.746 16.0727 153.474 15.608C153.213 15.132 152.862 14.775 152.42 14.537C151.989 14.2877 151.524 14.163 151.026 14.163C150.538 14.163 150.074 14.2877 149.632 14.537C149.201 14.7863 148.85 15.149 148.578 15.625C148.317 16.101 148.187 16.662 148.187 17.308C148.187 17.954 148.317 18.5207 148.578 19.008C148.85 19.484 149.201 19.8467 149.632 20.096C150.074 20.3453 150.538 20.47 151.026 20.47C151.524 20.47 151.989 20.3453 152.42 20.096C152.862 19.8353 153.213 19.4613 153.474 18.974C153.746 18.4867 153.882 17.92 153.882 17.274ZM161.17 22.153C160.433 22.153 159.77 22.0227 159.181 21.762C158.603 21.49 158.144 21.1273 157.804 20.674C157.464 20.2093 157.283 19.6937 157.26 19.127H159.266C159.3 19.5237 159.487 19.858 159.827 20.13C160.178 20.3907 160.615 20.521 161.136 20.521C161.68 20.521 162.099 20.419 162.394 20.215C162.7 19.9997 162.853 19.7277 162.853 19.399C162.853 19.0477 162.683 18.787 162.343 18.617C162.014 18.447 161.487 18.26 160.762 18.056C160.059 17.8633 159.487 17.6763 159.045 17.495C158.603 17.3137 158.218 17.036 157.889 16.662C157.572 16.288 157.413 15.795 157.413 15.183C157.413 14.6843 157.56 14.231 157.855 13.823C158.15 13.4037 158.569 13.075 159.113 12.837C159.668 12.599 160.303 12.48 161.017 12.48C162.082 12.48 162.938 12.752 163.584 13.296C164.241 13.8287 164.593 14.5597 164.638 15.489H162.7C162.666 15.0697 162.496 14.7353 162.19 14.486C161.884 14.2367 161.47 14.112 160.949 14.112C160.439 14.112 160.048 14.2083 159.776 14.401C159.504 14.5937 159.368 14.8487 159.368 15.166C159.368 15.4153 159.459 15.625 159.64 15.795C159.821 15.965 160.042 16.101 160.303 16.203C160.564 16.2937 160.949 16.4127 161.459 16.56C162.139 16.7413 162.694 16.9283 163.125 17.121C163.567 17.3023 163.947 17.5743 164.264 17.937C164.581 18.2997 164.746 18.7813 164.757 19.382C164.757 19.9147 164.61 20.3907 164.315 20.81C164.02 21.2293 163.601 21.558 163.057 21.796C162.524 22.034 161.895 22.153 161.17 22.153ZM175.334 12.633V22H173.396V20.895C173.09 21.2803 172.688 21.5863 172.189 21.813C171.702 22.0283 171.181 22.136 170.625 22.136C169.889 22.136 169.226 21.983 168.636 21.677C168.058 21.371 167.599 20.9177 167.259 20.317C166.931 19.7163 166.766 18.991 166.766 18.141V12.633H168.687V17.852C168.687 18.6907 168.897 19.3367 169.316 19.79C169.736 20.232 170.308 20.453 171.033 20.453C171.759 20.453 172.331 20.232 172.75 19.79C173.181 19.3367 173.396 18.6907 173.396 17.852V12.633H175.334ZM189.23 12.48C189.967 12.48 190.624 12.633 191.202 12.939C191.792 13.245 192.251 13.6983 192.579 14.299C192.919 14.8997 193.089 15.625 193.089 16.475V22H191.168V16.764C191.168 15.9253 190.959 15.285 190.539 14.843C190.12 14.3897 189.548 14.163 188.822 14.163C188.097 14.163 187.519 14.3897 187.088 14.843C186.669 15.285 186.459 15.9253 186.459 16.764V22H184.538V16.764C184.538 15.9253 184.329 15.285 183.909 14.843C183.49 14.3897 182.918 14.163 182.192 14.163C181.467 14.163 180.889 14.3897 180.458 14.843C180.039 15.285 179.829 15.9253 179.829 16.764V22H177.891V12.633H179.829V13.704C180.147 13.3187 180.549 13.0183 181.036 12.803C181.524 12.5877 182.045 12.48 182.6 12.48C183.348 12.48 184.017 12.6387 184.606 12.956C185.196 13.2733 185.649 13.7323 185.966 14.333C186.25 13.7663 186.692 13.3187 187.292 12.99C187.893 12.65 188.539 12.48 189.23 12.48ZM200.957 11.392C200.606 11.392 200.311 11.273 200.073 11.035C199.835 10.797 199.716 10.5023 199.716 10.151C199.716 9.79967 199.835 9.505 200.073 9.267C200.311 9.029 200.606 8.91 200.957 8.91C201.297 8.91 201.586 9.029 201.824 9.267C202.062 9.505 202.181 9.79967 202.181 10.151C202.181 10.5023 202.062 10.797 201.824 11.035C201.586 11.273 201.297 11.392 200.957 11.392ZM201.909 12.633V22H199.971V12.633H201.909ZM207.854 22.153C207.117 22.153 206.454 22.0227 205.865 21.762C205.287 21.49 204.828 21.1273 204.488 20.674C204.148 20.2093 203.966 19.6937 203.944 19.127H205.95C205.984 19.5237 206.171 19.858 206.511 20.13C206.862 20.3907 207.298 20.521 207.82 20.521C208.364 20.521 208.783 20.419 209.078 20.215C209.384 19.9997 209.537 19.7277 209.537 19.399C209.537 19.0477 209.367 18.787 209.027 18.617C208.698 18.447 208.171 18.26 207.446 18.056C206.743 17.8633 206.171 17.6763 205.729 17.495C205.287 17.3137 204.901 17.036 204.573 16.662C204.255 16.288 204.097 15.795 204.097 15.183C204.097 14.6843 204.244 14.231 204.539 13.823C204.833 13.4037 205.253 13.075 205.797 12.837C206.352 12.599 206.987 12.48 207.701 12.48C208.766 12.48 209.622 12.752 210.268 13.296C210.925 13.8287 211.276 14.5597 211.322 15.489H209.384C209.35 15.0697 209.18 14.7353 208.874 14.486C208.568 14.2367 208.154 14.112 207.633 14.112C207.123 14.112 206.732 14.2083 206.46 14.401C206.188 14.5937 206.052 14.8487 206.052 15.166C206.052 15.4153 206.142 15.625 206.324 15.795C206.505 15.965 206.726 16.101 206.987 16.203C207.247 16.2937 207.633 16.4127 208.143 16.56C208.823 16.7413 209.378 16.9283 209.809 17.121C210.251 17.3023 210.63 17.5743 210.948 17.937C211.265 18.2997 211.429 18.7813 211.441 19.382C211.441 19.9147 211.293 20.3907 210.999 20.81C210.704 21.2293 210.285 21.558 209.741 21.796C209.208 22.034 208.579 22.153 207.854 22.153ZM221.351 22.153C220.614 22.153 219.951 22.0227 219.362 21.762C218.784 21.49 218.325 21.1273 217.985 20.674C217.645 20.2093 217.463 19.6937 217.441 19.127H219.447C219.481 19.5237 219.668 19.858 220.008 20.13C220.359 20.3907 220.795 20.521 221.317 20.521C221.861 20.521 222.28 20.419 222.575 20.215C222.881 19.9997 223.034 19.7277 223.034 19.399C223.034 19.0477 222.864 18.787 222.524 18.617C222.195 18.447 221.668 18.26 220.943 18.056C220.24 17.8633 219.668 17.6763 219.226 17.495C218.784 17.3137 218.398 17.036 218.07 16.662C217.752 16.288 217.594 15.795 217.594 15.183C217.594 14.6843 217.741 14.231 218.036 13.823C218.33 13.4037 218.75 13.075 219.294 12.837C219.849 12.599 220.484 12.48 221.198 12.48C222.263 12.48 223.119 12.752 223.765 13.296C224.422 13.8287 224.773 14.5597 224.819 15.489H222.881C222.847 15.0697 222.677 14.7353 222.371 14.486C222.065 14.2367 221.651 14.112 221.13 14.112C220.62 14.112 220.229 14.2083 219.957 14.401C219.685 14.5937 219.549 14.8487 219.549 15.166C219.549 15.4153 219.639 15.625 219.821 15.795C220.002 15.965 220.223 16.101 220.484 16.203C220.744 16.2937 221.13 16.4127 221.64 16.56C222.32 16.7413 222.875 16.9283 223.306 17.121C223.748 17.3023 224.127 17.5743 224.445 17.937C224.762 18.2997 224.926 18.7813 224.938 19.382C224.938 19.9147 224.79 20.3907 224.496 20.81C224.201 21.2293 223.782 21.558 223.238 21.796C222.705 22.034 222.076 22.153 221.351 22.153ZM228.018 11.392C227.667 11.392 227.372 11.273 227.134 11.035C226.896 10.797 226.777 10.5023 226.777 10.151C226.777 9.79967 226.896 9.505 227.134 9.267C227.372 9.029 227.667 8.91 228.018 8.91C228.358 8.91 228.647 9.029 228.885 9.267C229.123 9.505 229.242 9.79967 229.242 10.151C229.242 10.5023 229.123 10.797 228.885 11.035C228.647 11.273 228.358 11.392 228.018 11.392ZM228.97 12.633V22H227.032V12.633H228.97ZM242.853 12.48C243.59 12.48 244.247 12.633 244.825 12.939C245.415 13.245 245.874 13.6983 246.202 14.299C246.542 14.8997 246.712 15.625 246.712 16.475V22H244.791V16.764C244.791 15.9253 244.582 15.285 244.162 14.843C243.743 14.3897 243.171 14.163 242.445 14.163C241.72 14.163 241.142 14.3897 240.711 14.843C240.292 15.285 240.082 15.9253 240.082 16.764V22H238.161V16.764C238.161 15.9253 237.952 15.285 237.532 14.843C237.113 14.3897 236.541 14.163 235.815 14.163C235.09 14.163 234.512 14.3897 234.081 14.843C233.662 15.285 233.452 15.9253 233.452 16.764V22H231.514V12.633H233.452V13.704C233.77 13.3187 234.172 13.0183 234.659 12.803C235.147 12.5877 235.668 12.48 236.223 12.48C236.971 12.48 237.64 12.6387 238.229 12.956C238.819 13.2733 239.272 13.7323 239.589 14.333C239.873 13.7663 240.315 13.3187 240.915 12.99C241.516 12.65 242.162 12.48 242.853 12.48ZM251.116 14.01C251.445 13.5793 251.893 13.2167 252.459 12.922C253.026 12.6273 253.666 12.48 254.38 12.48C255.196 12.48 255.939 12.684 256.607 13.092C257.287 13.4887 257.82 14.0497 258.205 14.775C258.591 15.5003 258.783 16.3333 258.783 17.274C258.783 18.2147 258.591 19.059 258.205 19.807C257.82 20.5437 257.287 21.1217 256.607 21.541C255.939 21.949 255.196 22.153 254.38 22.153C253.666 22.153 253.032 22.0113 252.476 21.728C251.921 21.4333 251.468 21.0707 251.116 20.64V26.454H249.178V12.633H251.116V14.01ZM256.811 17.274C256.811 16.628 256.675 16.0727 256.403 15.608C256.143 15.132 255.791 14.775 255.349 14.537C254.919 14.2877 254.454 14.163 253.955 14.163C253.468 14.163 253.003 14.2877 252.561 14.537C252.131 14.7863 251.779 15.149 251.507 15.625C251.247 16.101 251.116 16.662 251.116 17.308C251.116 17.954 251.247 18.5207 251.507 19.008C251.779 19.484 252.131 19.8467 252.561 20.096C253.003 20.3453 253.468 20.47 253.955 20.47C254.454 20.47 254.919 20.3453 255.349 20.096C255.791 19.8353 256.143 19.4613 256.403 18.974C256.675 18.4867 256.811 17.92 256.811 17.274ZM262.638 9.42V22H260.7V9.42H262.638ZM273.614 12.633L267.868 26.403H265.862L267.766 21.847L264.077 12.633H266.236L268.871 19.773L271.608 12.633H273.614ZM278.847 17.274C278.847 16.3333 279.039 15.5003 279.425 14.775C279.821 14.0497 280.354 13.4887 281.023 13.092C281.703 12.684 282.456 12.48 283.284 12.48C283.896 12.48 284.496 12.616 285.086 12.888C285.686 13.1487 286.162 13.5 286.514 13.942V9.42H288.469V22H286.514V20.589C286.196 21.0423 285.754 21.4163 285.188 21.711C284.632 22.0057 283.992 22.153 283.267 22.153C282.451 22.153 281.703 21.949 281.023 21.541C280.354 21.1217 279.821 20.5437 279.425 19.807C279.039 19.059 278.847 18.2147 278.847 17.274ZM286.514 17.308C286.514 16.662 286.378 16.101 286.106 15.625C285.845 15.149 285.499 14.7863 285.069 14.537C284.638 14.2877 284.173 14.163 283.675 14.163C283.176 14.163 282.711 14.2877 282.281 14.537C281.85 14.775 281.499 15.132 281.227 15.608C280.966 16.0727 280.836 16.628 280.836 17.274C280.836 17.92 280.966 18.4867 281.227 18.974C281.499 19.4613 281.85 19.8353 282.281 20.096C282.723 20.3453 283.187 20.47 283.675 20.47C284.173 20.47 284.638 20.3453 285.069 20.096C285.499 19.8467 285.845 19.484 286.106 19.008C286.378 18.5207 286.514 17.954 286.514 17.308ZM299.497 12.633V22H297.559V20.895C297.253 21.2803 296.851 21.5863 296.352 21.813C295.865 22.0283 295.344 22.136 294.788 22.136C294.052 22.136 293.389 21.983 292.799 21.677C292.221 21.371 291.762 20.9177 291.422 20.317C291.094 19.7163 290.929 18.991 290.929 18.141V12.633H292.85V17.852C292.85 18.6907 293.06 19.3367 293.479 19.79C293.899 20.232 294.471 20.453 295.196 20.453C295.922 20.453 296.494 20.232 296.913 19.79C297.344 19.3367 297.559 18.6907 297.559 17.852V12.633H299.497ZM313.393 12.48C314.13 12.48 314.787 12.633 315.365 12.939C315.955 13.245 316.414 13.6983 316.742 14.299C317.082 14.8997 317.252 15.625 317.252 16.475V22H315.331V16.764C315.331 15.9253 315.122 15.285 314.702 14.843C314.283 14.3897 313.711 14.163 312.985 14.163C312.26 14.163 311.682 14.3897 311.251 14.843C310.832 15.285 310.622 15.9253 310.622 16.764V22H308.701V16.764C308.701 15.9253 308.492 15.285 308.072 14.843C307.653 14.3897 307.081 14.163 306.355 14.163C305.63 14.163 305.052 14.3897 304.621 14.843C304.202 15.285 303.992 15.9253 303.992 16.764V22H302.054V12.633H303.992V13.704C304.31 13.3187 304.712 13.0183 305.199 12.803C305.687 12.5877 306.208 12.48 306.763 12.48C307.511 12.48 308.18 12.6387 308.769 12.956C309.359 13.2733 309.812 13.7323 310.129 14.333C310.413 13.7663 310.855 13.3187 311.455 12.99C312.056 12.65 312.702 12.48 313.393 12.48ZM331.057 12.48C331.794 12.48 332.451 12.633 333.029 12.939C333.619 13.245 334.078 13.6983 334.406 14.299C334.746 14.8997 334.916 15.625 334.916 16.475V22H332.995V16.764C332.995 15.9253 332.786 15.285 332.366 14.843C331.947 14.3897 331.375 14.163 330.649 14.163C329.924 14.163 329.346 14.3897 328.915 14.843C328.496 15.285 328.286 15.9253 328.286 16.764V22H326.365V16.764C326.365 15.9253 326.156 15.285 325.736 14.843C325.317 14.3897 324.745 14.163 324.019 14.163C323.294 14.163 322.716 14.3897 322.285 14.843C321.866 15.285 321.656 15.9253 321.656 16.764V22H319.718V12.633H321.656V13.704C321.974 13.3187 322.376 13.0183 322.863 12.803C323.351 12.5877 323.872 12.48 324.427 12.48C325.175 12.48 325.844 12.6387 326.433 12.956C327.023 13.2733 327.476 13.7323 327.793 14.333C328.077 13.7663 328.519 13.3187 329.119 12.99C329.72 12.65 330.366 12.48 331.057 12.48ZM345.814 12.633L340.068 26.403H338.062L339.966 21.847L336.277 12.633H338.436L341.071 19.773L343.808 12.633H345.814ZM353.954 14.214V19.399C353.954 19.7503 354.033 20.0053 354.192 20.164C354.362 20.3113 354.645 20.385 355.042 20.385H356.232V22H354.702C353.829 22 353.161 21.796 352.696 21.388C352.231 20.98 351.999 20.317 351.999 19.399V14.214H350.894V12.633H351.999V10.304H353.954V12.633H356.232V14.214H353.954ZM366.603 17.087C366.603 17.4383 366.58 17.7557 366.535 18.039H359.378C359.435 18.787 359.712 19.3877 360.211 19.841C360.71 20.2943 361.322 20.521 362.047 20.521C363.09 20.521 363.826 20.0847 364.257 19.212H366.348C366.065 20.0733 365.549 20.7817 364.801 21.337C364.064 21.881 363.146 22.153 362.047 22.153C361.152 22.153 360.347 21.9547 359.633 21.558C358.93 21.15 358.375 20.5833 357.967 19.858C357.57 19.1213 357.372 18.2713 357.372 17.308C357.372 16.3447 357.565 15.5003 357.95 14.775C358.347 14.0383 358.896 13.4717 359.599 13.075C360.313 12.6783 361.129 12.48 362.047 12.48C362.931 12.48 363.719 12.6727 364.41 13.058C365.101 13.4433 365.64 13.9873 366.025 14.69C366.41 15.3813 366.603 16.1803 366.603 17.087ZM364.58 16.475C364.569 15.761 364.314 15.1887 363.815 14.758C363.316 14.3273 362.699 14.112 361.962 14.112C361.293 14.112 360.721 14.3273 360.245 14.758C359.769 15.1773 359.486 15.7497 359.395 16.475H364.58ZM372.522 17.257L375.548 22H373.355L371.332 18.821L369.428 22H367.405L370.431 17.393L367.405 12.633H369.598L371.621 15.812L373.525 12.633H375.548L372.522 17.257ZM379.255 14.214V19.399C379.255 19.7503 379.334 20.0053 379.493 20.164C379.663 20.3113 379.946 20.385 380.343 20.385H381.533V22H380.003C379.13 22 378.461 21.796 377.997 21.388C377.532 20.98 377.3 20.317 377.3 19.399V14.214H376.195V12.633H377.3V10.304H379.255V12.633H381.533V14.214H379.255Z" fill="black"/>
<path d="M85.352 46.964H88.768V48H84.078V38.242H85.352V46.964ZM93.467 48.126C92.7483 48.126 92.095 47.9627 91.507 47.636C90.9283 47.3093 90.471 46.8473 90.135 46.25C89.8083 45.6433 89.645 44.9433 89.645 44.15C89.645 43.366 89.813 42.6753 90.149 42.078C90.4943 41.4713 90.961 41.0093 91.549 40.692C92.137 40.3653 92.795 40.202 93.523 40.202C94.251 40.202 94.909 40.3653 95.497 40.692C96.085 41.0093 96.547 41.4667 96.883 42.064C97.2283 42.6613 97.401 43.3567 97.401 44.15C97.401 44.9433 97.2236 45.6433 96.869 46.25C96.5236 46.8473 96.0523 47.3093 95.455 47.636C94.8576 47.9627 94.195 48.126 93.467 48.126ZM93.467 47.006C93.9243 47.006 94.3536 46.8987 94.755 46.684C95.1563 46.4693 95.4783 46.1473 95.721 45.718C95.973 45.2887 96.099 44.766 96.099 44.15C96.099 43.534 95.9776 43.0113 95.735 42.582C95.4923 42.1527 95.175 41.8353 94.783 41.63C94.391 41.4153 93.9663 41.308 93.509 41.308C93.0423 41.308 92.613 41.4153 92.221 41.63C91.8383 41.8353 91.5303 42.1527 91.297 42.582C91.0636 43.0113 90.947 43.534 90.947 44.15C90.947 44.7753 91.059 45.3027 91.283 45.732C91.5163 46.1613 91.8243 46.4833 92.207 46.698C92.5896 46.9033 93.0096 47.006 93.467 47.006ZM100.35 41.574C100.574 41.1353 100.891 40.7947 101.302 40.552C101.722 40.3093 102.231 40.188 102.828 40.188V41.504H102.492C101.064 41.504 100.35 42.2787 100.35 43.828V48H99.076V40.328H100.35V41.574ZM111.299 43.87C111.299 44.1127 111.285 44.3693 111.257 44.64H105.125C105.171 45.396 105.428 45.9887 105.895 46.418C106.371 46.838 106.945 47.048 107.617 47.048C108.167 47.048 108.625 46.922 108.989 46.67C109.362 46.4087 109.623 46.0633 109.773 45.634H111.145C110.939 46.3713 110.529 46.9733 109.913 47.44C109.297 47.8973 108.531 48.126 107.617 48.126C106.889 48.126 106.235 47.9627 105.657 47.636C105.087 47.3093 104.639 46.8473 104.313 46.25C103.986 45.6433 103.823 44.9433 103.823 44.15C103.823 43.3567 103.981 42.6613 104.299 42.064C104.616 41.4667 105.059 41.0093 105.629 40.692C106.207 40.3653 106.87 40.202 107.617 40.202C108.345 40.202 108.989 40.3607 109.549 40.678C110.109 40.9953 110.538 41.434 110.837 41.994C111.145 42.5447 111.299 43.17 111.299 43.87ZM109.983 43.604C109.983 43.1187 109.875 42.7033 109.661 42.358C109.446 42.0033 109.152 41.7373 108.779 41.56C108.415 41.3733 108.009 41.28 107.561 41.28C106.917 41.28 106.366 41.4853 105.909 41.896C105.461 42.3067 105.204 42.876 105.139 43.604H109.983ZM122.206 40.188C122.804 40.188 123.336 40.314 123.802 40.566C124.269 40.8087 124.638 41.1773 124.908 41.672C125.179 42.1667 125.314 42.7687 125.314 43.478V48H124.054V43.66C124.054 42.8947 123.863 42.3113 123.48 41.91C123.107 41.4993 122.598 41.294 121.954 41.294C121.292 41.294 120.764 41.5087 120.372 41.938C119.98 42.358 119.784 42.9693 119.784 43.772V48H118.524V43.66C118.524 42.8947 118.333 42.3113 117.95 41.91C117.577 41.4993 117.068 41.294 116.424 41.294C115.762 41.294 115.234 41.5087 114.842 41.938C114.45 42.358 114.254 42.9693 114.254 43.772V48H112.98V40.328H114.254V41.434C114.506 41.0327 114.842 40.7247 115.262 40.51C115.692 40.2953 116.163 40.188 116.676 40.188C117.32 40.188 117.89 40.3327 118.384 40.622C118.879 40.9113 119.248 41.336 119.49 41.896C119.705 41.3547 120.06 40.9347 120.554 40.636C121.049 40.3373 121.6 40.188 122.206 40.188ZM132.411 38.242V48H131.137V38.242H132.411ZM135.856 41.742C136.108 41.3033 136.481 40.9393 136.976 40.65C137.48 40.3513 138.063 40.202 138.726 40.202C139.407 40.202 140.023 40.3653 140.574 40.692C141.134 41.0187 141.573 41.4807 141.89 42.078C142.207 42.666 142.366 43.352 142.366 44.136C142.366 44.9107 142.207 45.6013 141.89 46.208C141.573 46.8147 141.134 47.286 140.574 47.622C140.023 47.958 139.407 48.126 138.726 48.126C138.073 48.126 137.494 47.9813 136.99 47.692C136.495 47.3933 136.117 47.0247 135.856 46.586V51.64H134.582V40.328H135.856V41.742ZM141.064 44.136C141.064 43.5573 140.947 43.0533 140.714 42.624C140.481 42.1947 140.163 41.868 139.762 41.644C139.37 41.42 138.936 41.308 138.46 41.308C137.993 41.308 137.559 41.4247 137.158 41.658C136.766 41.882 136.449 42.2133 136.206 42.652C135.973 43.0813 135.856 43.5807 135.856 44.15C135.856 44.7287 135.973 45.2373 136.206 45.676C136.449 46.1053 136.766 46.4367 137.158 46.67C137.559 46.894 137.993 47.006 138.46 47.006C138.936 47.006 139.37 46.894 139.762 46.67C140.163 46.4367 140.481 46.1053 140.714 45.676C140.947 45.2373 141.064 44.724 141.064 44.136ZM146.759 48.126C146.171 48.126 145.644 48.028 145.177 47.832C144.71 47.6267 144.342 47.3467 144.071 46.992C143.8 46.628 143.651 46.2127 143.623 45.746H144.939C144.976 46.1287 145.154 46.4413 145.471 46.684C145.798 46.9267 146.222 47.048 146.745 47.048C147.23 47.048 147.613 46.9407 147.893 46.726C148.173 46.5113 148.313 46.2407 148.313 45.914C148.313 45.578 148.164 45.3307 147.865 45.172C147.566 45.004 147.104 44.8407 146.479 44.682C145.91 44.5327 145.443 44.3833 145.079 44.234C144.724 44.0753 144.416 43.8467 144.155 43.548C143.903 43.24 143.777 42.8387 143.777 42.344C143.777 41.952 143.894 41.5927 144.127 41.266C144.36 40.9393 144.692 40.6827 145.121 40.496C145.55 40.3 146.04 40.202 146.591 40.202C147.44 40.202 148.126 40.4167 148.649 40.846C149.172 41.2753 149.452 41.8633 149.489 42.61H148.215C148.187 42.2087 148.024 41.8867 147.725 41.644C147.436 41.4013 147.044 41.28 146.549 41.28C146.092 41.28 145.728 41.378 145.457 41.574C145.186 41.77 145.051 42.0267 145.051 42.344C145.051 42.596 145.13 42.806 145.289 42.974C145.457 43.1327 145.662 43.2633 145.905 43.366C146.157 43.4593 146.502 43.5667 146.941 43.688C147.492 43.8373 147.94 43.9867 148.285 44.136C148.63 44.276 148.924 44.4907 149.167 44.78C149.419 45.0693 149.55 45.4473 149.559 45.914C149.559 46.334 149.442 46.712 149.209 47.048C148.976 47.384 148.644 47.65 148.215 47.846C147.795 48.0327 147.31 48.126 146.759 48.126ZM158.161 40.328V48H156.887V46.866C156.645 47.258 156.304 47.566 155.865 47.79C155.436 48.0047 154.96 48.112 154.437 48.112C153.84 48.112 153.303 47.9907 152.827 47.748C152.351 47.496 151.973 47.1227 151.693 46.628C151.423 46.1333 151.287 45.5313 151.287 44.822V40.328H152.547V44.654C152.547 45.41 152.739 45.9933 153.121 46.404C153.504 46.8053 154.027 47.006 154.689 47.006C155.371 47.006 155.907 46.796 156.299 46.376C156.691 45.956 156.887 45.3447 156.887 44.542V40.328H158.161ZM169.538 40.188C170.136 40.188 170.668 40.314 171.134 40.566C171.601 40.8087 171.97 41.1773 172.24 41.672C172.511 42.1667 172.646 42.7687 172.646 43.478V48H171.386V43.66C171.386 42.8947 171.195 42.3113 170.812 41.91C170.439 41.4993 169.93 41.294 169.286 41.294C168.624 41.294 168.096 41.5087 167.704 41.938C167.312 42.358 167.116 42.9693 167.116 43.772V48H165.856V43.66C165.856 42.8947 165.665 42.3113 165.282 41.91C164.909 41.4993 164.4 41.294 163.756 41.294C163.094 41.294 162.566 41.5087 162.174 41.938C161.782 42.358 161.586 42.9693 161.586 43.772V48H160.312V40.328H161.586V41.434C161.838 41.0327 162.174 40.7247 162.594 40.51C163.024 40.2953 163.495 40.188 164.008 40.188C164.652 40.188 165.222 40.3327 165.716 40.622C166.211 40.9113 166.58 41.336 166.822 41.896C167.037 41.3547 167.392 40.9347 167.886 40.636C168.381 40.3373 168.932 40.188 169.538 40.188ZM179.127 39.082C178.884 39.082 178.679 38.998 178.511 38.83C178.343 38.662 178.259 38.4567 178.259 38.214C178.259 37.9713 178.343 37.766 178.511 37.598C178.679 37.43 178.884 37.346 179.127 37.346C179.36 37.346 179.556 37.43 179.715 37.598C179.883 37.766 179.967 37.9713 179.967 38.214C179.967 38.4567 179.883 38.662 179.715 38.83C179.556 38.998 179.36 39.082 179.127 39.082ZM179.743 40.328V48H178.469V40.328H179.743ZM184.63 48.126C184.042 48.126 183.515 48.028 183.048 47.832C182.581 47.6267 182.213 47.3467 181.942 46.992C181.671 46.628 181.522 46.2127 181.494 45.746H182.81C182.847 46.1287 183.025 46.4413 183.342 46.684C183.669 46.9267 184.093 47.048 184.616 47.048C185.101 47.048 185.484 46.9407 185.764 46.726C186.044 46.5113 186.184 46.2407 186.184 45.914C186.184 45.578 186.035 45.3307 185.736 45.172C185.437 45.004 184.975 44.8407 184.35 44.682C183.781 44.5327 183.314 44.3833 182.95 44.234C182.595 44.0753 182.287 43.8467 182.026 43.548C181.774 43.24 181.648 42.8387 181.648 42.344C181.648 41.952 181.765 41.5927 181.998 41.266C182.231 40.9393 182.563 40.6827 182.992 40.496C183.421 40.3 183.911 40.202 184.462 40.202C185.311 40.202 185.997 40.4167 186.52 40.846C187.043 41.2753 187.323 41.8633 187.36 42.61H186.086C186.058 42.2087 185.895 41.8867 185.596 41.644C185.307 41.4013 184.915 41.28 184.42 41.28C183.963 41.28 183.599 41.378 183.328 41.574C183.057 41.77 182.922 42.0267 182.922 42.344C182.922 42.596 183.001 42.806 183.16 42.974C183.328 43.1327 183.533 43.2633 183.776 43.366C184.028 43.4593 184.373 43.5667 184.812 43.688C185.363 43.8373 185.811 43.9867 186.156 44.136C186.501 44.276 186.795 44.4907 187.038 44.78C187.29 45.0693 187.421 45.4473 187.43 45.914C187.43 46.334 187.313 46.712 187.08 47.048C186.847 47.384 186.515 47.65 186.086 47.846C185.666 48.0327 185.181 48.126 184.63 48.126ZM195.677 48.126C195.089 48.126 194.561 48.028 194.095 47.832C193.628 47.6267 193.259 47.3467 192.989 46.992C192.718 46.628 192.569 46.2127 192.541 45.746H193.857C193.894 46.1287 194.071 46.4413 194.389 46.684C194.715 46.9267 195.14 47.048 195.663 47.048C196.148 47.048 196.531 46.9407 196.811 46.726C197.091 46.5113 197.231 46.2407 197.231 45.914C197.231 45.578 197.081 45.3307 196.783 45.172C196.484 45.004 196.022 44.8407 195.397 44.682C194.827 44.5327 194.361 44.3833 193.997 44.234C193.642 44.0753 193.334 43.8467 193.073 43.548C192.821 43.24 192.695 42.8387 192.695 42.344C192.695 41.952 192.811 41.5927 193.045 41.266C193.278 40.9393 193.609 40.6827 194.039 40.496C194.468 40.3 194.958 40.202 195.509 40.202C196.358 40.202 197.044 40.4167 197.567 40.846C198.089 41.2753 198.369 41.8633 198.407 42.61H197.133C197.105 42.2087 196.941 41.8867 196.643 41.644C196.353 41.4013 195.961 41.28 195.467 41.28C195.009 41.28 194.645 41.378 194.375 41.574C194.104 41.77 193.969 42.0267 193.969 42.344C193.969 42.596 194.048 42.806 194.207 42.974C194.375 43.1327 194.58 43.2633 194.823 43.366C195.075 43.4593 195.42 43.5667 195.859 43.688C196.409 43.8373 196.857 43.9867 197.203 44.136C197.548 44.276 197.842 44.4907 198.085 44.78C198.337 45.0693 198.467 45.4473 198.477 45.914C198.477 46.334 198.36 46.712 198.127 47.048C197.893 47.384 197.562 47.65 197.133 47.846C196.713 48.0327 196.227 48.126 195.677 48.126ZM200.933 39.082C200.691 39.082 200.485 38.998 200.317 38.83C200.149 38.662 200.065 38.4567 200.065 38.214C200.065 37.9713 200.149 37.766 200.317 37.598C200.485 37.43 200.691 37.346 200.933 37.346C201.167 37.346 201.363 37.43 201.521 37.598C201.689 37.766 201.773 37.9713 201.773 38.214C201.773 38.4567 201.689 38.662 201.521 38.83C201.363 38.998 201.167 39.082 200.933 39.082ZM201.549 40.328V48H200.275V40.328H201.549ZM212.947 40.188C213.544 40.188 214.076 40.314 214.543 40.566C215.009 40.8087 215.378 41.1773 215.649 41.672C215.919 42.1667 216.055 42.7687 216.055 43.478V48H214.795V43.66C214.795 42.8947 214.603 42.3113 214.221 41.91C213.847 41.4993 213.339 41.294 212.695 41.294C212.032 41.294 211.505 41.5087 211.113 41.938C210.721 42.358 210.525 42.9693 210.525 43.772V48H209.265V43.66C209.265 42.8947 209.073 42.3113 208.691 41.91C208.317 41.4993 207.809 41.294 207.165 41.294C206.502 41.294 205.975 41.5087 205.583 41.938C205.191 42.358 204.995 42.9693 204.995 43.772V48H203.721V40.328H204.995V41.434C205.247 41.0327 205.583 40.7247 206.003 40.51C206.432 40.2953 206.903 40.188 207.417 40.188C208.061 40.188 208.63 40.3327 209.125 40.622C209.619 40.9113 209.988 41.336 210.231 41.896C210.445 41.3547 210.8 40.9347 211.295 40.636C211.789 40.3373 212.34 40.188 212.947 40.188ZM219.418 41.742C219.67 41.3033 220.044 40.9393 220.538 40.65C221.042 40.3513 221.626 40.202 222.288 40.202C222.97 40.202 223.586 40.3653 224.136 40.692C224.696 41.0187 225.135 41.4807 225.452 42.078C225.77 42.666 225.928 43.352 225.928 44.136C225.928 44.9107 225.77 45.6013 225.452 46.208C225.135 46.8147 224.696 47.286 224.136 47.622C223.586 47.958 222.97 48.126 222.288 48.126C221.635 48.126 221.056 47.9813 220.552 47.692C220.058 47.3933 219.68 47.0247 219.418 46.586V51.64H218.144V40.328H219.418V41.742ZM224.626 44.136C224.626 43.5573 224.51 43.0533 224.276 42.624C224.043 42.1947 223.726 41.868 223.324 41.644C222.932 41.42 222.498 41.308 222.022 41.308C221.556 41.308 221.122 41.4247 220.72 41.658C220.328 41.882 220.011 42.2133 219.768 42.652C219.535 43.0813 219.418 43.5807 219.418 44.15C219.418 44.7287 219.535 45.2373 219.768 45.676C220.011 46.1053 220.328 46.4367 220.72 46.67C221.122 46.894 221.556 47.006 222.022 47.006C222.498 47.006 222.932 46.894 223.324 46.67C223.726 46.4367 224.043 46.1053 224.276 45.676C224.51 45.2373 224.626 44.724 224.626 44.136ZM228.879 37.64V48H227.605V37.64H228.879ZM237.659 40.328L233.039 51.612H231.723L233.235 47.916L230.141 40.328H231.555L233.963 46.544L236.343 40.328H237.659ZM242.196 44.136C242.196 43.352 242.354 42.666 242.672 42.078C242.989 41.4807 243.423 41.0187 243.974 40.692C244.534 40.3653 245.159 40.202 245.85 40.202C246.447 40.202 247.002 40.342 247.516 40.622C248.029 40.8927 248.421 41.252 248.692 41.7V37.64H249.98V48H248.692V46.558C248.44 47.0153 248.066 47.3933 247.572 47.692C247.077 47.9813 246.498 48.126 245.836 48.126C245.154 48.126 244.534 47.958 243.974 47.622C243.423 47.286 242.989 46.8147 242.672 46.208C242.354 45.6013 242.196 44.9107 242.196 44.136ZM248.692 44.15C248.692 43.5713 248.575 43.0673 248.342 42.638C248.108 42.2087 247.791 41.882 247.39 41.658C246.998 41.4247 246.564 41.308 246.088 41.308C245.612 41.308 245.178 41.42 244.786 41.644C244.394 41.868 244.081 42.1947 243.848 42.624C243.614 43.0533 243.498 43.5573 243.498 44.136C243.498 44.724 243.614 45.2373 243.848 45.676C244.081 46.1053 244.394 46.4367 244.786 46.67C245.178 46.894 245.612 47.006 246.088 47.006C246.564 47.006 246.998 46.894 247.39 46.67C247.791 46.4367 248.108 46.1053 248.342 45.676C248.575 45.2373 248.692 44.7287 248.692 44.15ZM258.937 40.328V48H257.663V46.866C257.42 47.258 257.079 47.566 256.641 47.79C256.211 48.0047 255.735 48.112 255.213 48.112C254.615 48.112 254.079 47.9907 253.603 47.748C253.127 47.496 252.749 47.1227 252.469 46.628C252.198 46.1333 252.063 45.5313 252.063 44.822V40.328H253.323V44.654C253.323 45.41 253.514 45.9933 253.897 46.404C254.279 46.8053 254.802 47.006 255.465 47.006C256.146 47.006 256.683 46.796 257.075 46.376C257.467 45.956 257.663 45.3447 257.663 44.542V40.328H258.937ZM270.314 40.188C270.911 40.188 271.443 40.314 271.91 40.566C272.376 40.8087 272.745 41.1773 273.016 41.672C273.286 42.1667 273.422 42.7687 273.422 43.478V48H272.162V43.66C272.162 42.8947 271.97 42.3113 271.588 41.91C271.214 41.4993 270.706 41.294 270.062 41.294C269.399 41.294 268.872 41.5087 268.48 41.938C268.088 42.358 267.892 42.9693 267.892 43.772V48H266.632V43.66C266.632 42.8947 266.44 42.3113 266.058 41.91C265.684 41.4993 265.176 41.294 264.532 41.294C263.869 41.294 263.342 41.5087 262.95 41.938C262.558 42.358 262.362 42.9693 262.362 43.772V48H261.088V40.328H262.362V41.434C262.614 41.0327 262.95 40.7247 263.37 40.51C263.799 40.2953 264.27 40.188 264.784 40.188C265.428 40.188 265.997 40.3327 266.492 40.622C266.986 40.9113 267.355 41.336 267.598 41.896C267.812 41.3547 268.167 40.9347 268.662 40.636C269.156 40.3373 269.707 40.188 270.314 40.188ZM284.738 40.188C285.335 40.188 285.867 40.314 286.334 40.566C286.8 40.8087 287.169 41.1773 287.44 41.672C287.71 42.1667 287.846 42.7687 287.846 43.478V48H286.586V43.66C286.586 42.8947 286.394 42.3113 286.012 41.91C285.638 41.4993 285.13 41.294 284.486 41.294C283.823 41.294 283.296 41.5087 282.904 41.938C282.512 42.358 282.316 42.9693 282.316 43.772V48H281.056V43.66C281.056 42.8947 280.864 42.3113 280.482 41.91C280.108 41.4993 279.6 41.294 278.956 41.294C278.293 41.294 277.766 41.5087 277.374 41.938C276.982 42.358 276.786 42.9693 276.786 43.772V48H275.512V40.328H276.786V41.434C277.038 41.0327 277.374 40.7247 277.794 40.51C278.223 40.2953 278.694 40.188 279.208 40.188C279.852 40.188 280.421 40.3327 280.916 40.622C281.41 40.9113 281.779 41.336 282.022 41.896C282.236 41.3547 282.591 40.9347 283.086 40.636C283.58 40.3373 284.131 40.188 284.738 40.188ZM296.543 40.328L291.923 51.612H290.607L292.119 47.916L289.025 40.328H290.439L292.847 46.544L295.227 40.328H296.543ZM303.111 41.378V45.9C303.111 46.2733 303.19 46.5393 303.349 46.698C303.507 46.8473 303.783 46.922 304.175 46.922H305.113V48H303.965C303.255 48 302.723 47.8367 302.369 47.51C302.014 47.1833 301.837 46.6467 301.837 45.9V41.378H300.843V40.328H301.837V38.396H303.111V40.328H305.113V41.378H303.111ZM313.656 43.87C313.656 44.1127 313.642 44.3693 313.614 44.64H307.482C307.529 45.396 307.785 45.9887 308.252 46.418C308.728 46.838 309.302 47.048 309.974 47.048C310.525 47.048 310.982 46.922 311.346 46.67C311.719 46.4087 311.981 46.0633 312.13 45.634H313.502C313.297 46.3713 312.886 46.9733 312.27 47.44C311.654 47.8973 310.889 48.126 309.974 48.126C309.246 48.126 308.593 47.9627 308.014 47.636C307.445 47.3093 306.997 46.8473 306.67 46.25C306.343 45.6433 306.18 44.9433 306.18 44.15C306.18 43.3567 306.339 42.6613 306.656 42.064C306.973 41.4667 307.417 41.0093 307.986 40.692C308.565 40.3653 309.227 40.202 309.974 40.202C310.702 40.202 311.346 40.3607 311.906 40.678C312.466 40.9953 312.895 41.434 313.194 41.994C313.502 42.5447 313.656 43.17 313.656 43.87ZM312.34 43.604C312.34 43.1187 312.233 42.7033 312.018 42.358C311.803 42.0033 311.509 41.7373 311.136 41.56C310.772 41.3733 310.366 41.28 309.918 41.28C309.274 41.28 308.723 41.4853 308.266 41.896C307.818 42.3067 307.561 42.876 307.496 43.604H312.34ZM319.342 48L317.522 45.144L315.772 48H314.442L316.92 44.192L314.442 40.328H315.884L317.704 43.17L319.44 40.328H320.77L318.306 44.122L320.784 48H319.342ZM323.591 41.378V45.9C323.591 46.2733 323.67 46.5393 323.829 46.698C323.988 46.8473 324.263 46.922 324.655 46.922H325.593V48H324.445C323.736 48 323.204 47.8367 322.849 47.51C322.494 47.1833 322.317 46.6467 322.317 45.9V41.378H321.323V40.328H322.317V38.396H323.591V40.328H325.593V41.378H323.591Z" fill="#868686"/>
</svg>
